<svg xmlns="http://www.w3.org/2000/svg" width="12.556" height="8.789" viewBox="0 0 12.556 8.789">
  <g id="Group_2379" data-name="Group 2379" transform="translate(0)">
    <path id="Path_1481" data-name="Path 1481" d="M126.94,123.2a.94.94,0,0,0-.942.942v6.906a.94.94,0,0,0,.942.942h10.672a.94.94,0,0,0,.942-.942v-6.906a.94.94,0,0,0-.942-.942Zm.746,1.408h0a.314.314,0,0,1,.26.093l3.884,3.811a.634.634,0,0,0,.883,0l3.894-3.811h0a.314.314,0,1,1,.441.446l-2.545,2.5,2.541,2.389h0a.314.314,0,0,1-.432.456l-2.555-2.408-.9.883a1.269,1.269,0,0,1-1.766,0l-.893-.878-2.555,2.4h0a.314.314,0,0,1-.432-.456l2.536-2.389-2.541-2.5a.314.314,0,0,1,.181-.54Z" transform="translate(-125.998 -123.2)" fill="#45e2a1"/>
  </g>
</svg>
