<svg id="live-chat" xmlns="http://www.w3.org/2000/svg" width="24.546" height="24.39" viewBox="0 0 24.546 24.39">
  <path id="Path_5" data-name="Path 5" d="M558.582,515.8a1.094,1.094,0,0,0-1.095,1.095,6.9,6.9,0,0,1-3.2,5.738l-.6.4.3,1.543-2.271-.791-.3.066a8.9,8.9,0,0,1-1.91.205,1.095,1.095,0,0,0,0,2.189,11.135,11.135,0,0,0,2.072-.194l5.276,1.836-.742-3.878a9.642,9.642,0,0,0,2.43-2.8,8.791,8.791,0,0,0,1.147-4.321A1.093,1.093,0,0,0,558.582,515.8Z" transform="translate(-535.131 -503.5)"/>
  <path id="Path_6" data-name="Path 6" d="M83.884,79.884a9.048,9.048,0,0,0,0-7.662,9.754,9.754,0,0,0-2.3-3.1,11.3,11.3,0,0,0-14.941,0,9.714,9.714,0,0,0-2.3,3.1,9.024,9.024,0,0,0-.851,3.831,9.143,9.143,0,0,0,1.2,4.5,9.993,9.993,0,0,0,2.559,2.939L66.488,87.5l5.457-1.9a11.529,11.529,0,0,0,2.173.205,11.051,11.051,0,0,0,7.471-2.821A9.754,9.754,0,0,0,83.884,79.884Zm-9.766,3.73A9.517,9.517,0,0,1,72.1,83.4l-.3-.066-2.452.854.32-1.672-.6-.408a7.28,7.28,0,0,1-3.38-6.056c0-4.17,3.782-7.564,8.428-7.564s8.428,3.393,8.428,7.564S78.764,83.614,74.117,83.614Z" transform="translate(-63.5 -66.3)"/>
  <path id="Path_7" data-name="Path 7" d="M221.187,375.218a1.127,1.127,0,1,0,0-1.594A1.127,1.127,0,0,0,221.187,375.218Z" transform="translate(-216.55 -364.893)"/>
  <path id="Path_8" data-name="Path 8" d="M404.288,375.228a1.127,1.127,0,1,0,0-1.594A1.127,1.127,0,0,0,404.288,375.228Z" transform="translate(-394.642 -364.903)"/>
  <path id="Path_9" data-name="Path 9" d="M587.392,375.239a1.127,1.127,0,1,0,0-1.594A1.127,1.127,0,0,0,587.392,375.239Z" transform="translate(-572.734 -364.913)"/>
</svg>
