<svg xmlns="http://www.w3.org/2000/svg" width="55.502" height="55.504" viewBox="0 0 55.502 55.504">
  <path id="Path_881" data-name="Path 881" d="M45.752,18a27.752,27.752,0,1,0,9.913,53.674,3.469,3.469,0,1,0-2.481-6.479A20.814,20.814,0,1,1,66.566,45.752V47.92a3.9,3.9,0,0,1-7.805,0V45.752a13.052,13.052,0,1,0-4.1,9.453A10.823,10.823,0,0,0,73.5,47.92V45.752A27.752,27.752,0,0,0,45.752,18Zm0,33.823a6.071,6.071,0,1,1,6.071-6.071,6.071,6.071,0,0,1-6.071,6.071Z" transform="translate(-18.002 -18)" fill="#45e2a1"/>
</svg>
