<svg xmlns="http://www.w3.org/2000/svg" width="50.103" height="50.103" viewBox="0 0 50.103 50.103">
  <path id="phone-svgrepo-com_2_" data-name="phone-svgrepo-com (2)" d="M53.1,48.055V40.512a5.022,5.022,0,0,0-1.193-3.376c-2.253-2.654-9.98-4.351-13.043-3.7-2.387.508-4.058,2.905-5.691,4.535A40.268,40.268,0,0,1,18.059,22.888c1.633-1.63,4.035-3.3,4.544-5.68.652-3.052-1.043-10.73-3.678-12.992A5.044,5.044,0,0,0,15.591,3H8.033A5.107,5.107,0,0,0,3.02,8.481a44.056,44.056,0,0,0,44.59,44.6A5.109,5.109,0,0,0,53.1,48.055Z" transform="translate(-3 -3)" fill="#45e2a1"/>
</svg>
