<svg xmlns="http://www.w3.org/2000/svg" width="12.556" height="15.349" viewBox="0 0 12.556 15.349">
  <g id="Group_2378" data-name="Group 2378" transform="translate(0)">
    <path id="Path_1471" data-name="Path 1471" d="M152.121,233.52h-2.165a.434.434,0,0,0-.436.436v1.309a.434.434,0,0,0,.436.436h2.165a.434.434,0,0,0,.436-.436v-1.309A.434.434,0,0,0,152.121,233.52Z" transform="translate(-149.026 -227.187)" fill="#45e2a1"/>
    <path id="Path_1472" data-name="Path 1472" d="M152.121,351.68h-2.165a.434.434,0,0,0-.436.436v1.309a.434.434,0,0,0,.436.436h2.165a.434.434,0,0,0,.436-.436v-1.309A.434.434,0,0,0,152.121,351.68Z" transform="translate(-149.026 -341.937)" fill="#45e2a1"/>
    <path id="Path_1473" data-name="Path 1473" d="M152.121,470.4h-2.165a.434.434,0,0,0-.436.436v1.309a.434.434,0,0,0,.436.436h2.165a.434.434,0,0,0,.436-.436v-1.309A.435.435,0,0,0,152.121,470.4Z" transform="translate(-149.026 -457.233)" fill="#45e2a1"/>
    <path id="Path_1474" data-name="Path 1474" d="M299.961,233.52H297.8a.434.434,0,0,0-.436.436v1.309a.434.434,0,0,0,.436.436h2.165a.434.434,0,0,0,.436-.436v-1.309A.434.434,0,0,0,299.961,233.52Z" transform="translate(-292.601 -227.187)" fill="#45e2a1"/>
    <path id="Path_1475" data-name="Path 1475" d="M299.961,351.68H297.8a.434.434,0,0,0-.436.436v1.309a.434.434,0,0,0,.436.436h2.165a.434.434,0,0,0,.436-.436v-1.309A.434.434,0,0,0,299.961,351.68Z" transform="translate(-292.601 -341.937)" fill="#45e2a1"/>
    <path id="Path_1476" data-name="Path 1476" d="M299.961,470.4H297.8a.434.434,0,0,0-.436.436v1.309a.435.435,0,0,0,.436.436h2.165a.434.434,0,0,0,.436-.436v-1.309A.435.435,0,0,0,299.961,470.4Z" transform="translate(-292.601 -457.233)" fill="#45e2a1"/>
    <path id="Path_1477" data-name="Path 1477" d="M447.8,233.52h-2.165a.434.434,0,0,0-.436.436v1.309a.434.434,0,0,0,.436.436H447.8a.434.434,0,0,0,.436-.436v-1.309A.434.434,0,0,0,447.8,233.52Z" transform="translate(-436.175 -227.187)" fill="#45e2a1"/>
    <path id="Path_1478" data-name="Path 1478" d="M447.8,351.68h-2.165a.434.434,0,0,0-.436.436v1.309a.434.434,0,0,0,.436.436H447.8a.434.434,0,0,0,.436-.436v-1.309A.434.434,0,0,0,447.8,351.68Z" transform="translate(-436.175 -341.937)" fill="#45e2a1"/>
    <path id="Path_1479" data-name="Path 1479" d="M447.8,470.4h-2.165a.434.434,0,0,0-.436.436v1.309a.434.434,0,0,0,.436.436H447.8a.434.434,0,0,0,.436-.436v-1.309A.435.435,0,0,0,447.8,470.4Z" transform="translate(-436.175 -457.233)" fill="#45e2a1"/>
    <path id="Path_1480" data-name="Path 1480" d="M144.6,15.955a6.731,6.731,0,0,0-.969-.743A10.063,10.063,0,0,0,138.675,14a9.9,9.9,0,0,0-4.96,1.228,6.739,6.739,0,0,0-.969.743,1.012,1.012,0,0,0-.323,1l.388,1.777a.533.533,0,0,0,.662.388l2.6-.824a.508.508,0,0,0,.355-.549l-.194-1.422a7.956,7.956,0,0,1,2.44-.372,7.7,7.7,0,0,1,2.472.388l-.178,1.389a.5.5,0,0,0,.355.549l2.585.824a.511.511,0,0,0,.662-.388l.355-1.777a1.012,1.012,0,0,0-.323-1Z" transform="translate(-132.397 -14)" fill="#45e2a1"/>
  </g>
</svg>
